<svg width="53" height="27" viewBox="0 0 53 27" fill="none" xmlns="http://www.w3.org/2000/svg">
<path fill-rule="evenodd" clip-rule="evenodd" d="M52.8962 0H0V26.4481H52.8962V0ZM11.6249 19.306H15.8866C17.1076 19.306 18.1564 19.0653 19.0329 18.584C19.9135 18.1026 20.5885 17.4119 21.0581 16.5118C21.5316 15.6118 21.7684 14.5356 21.7684 13.2833C21.7684 12.0349 21.5316 10.9627 21.0581 10.0665C20.5885 9.17035 19.9174 8.48356 19.0447 8.00613C18.172 7.52478 17.1311 7.28411 15.9218 7.28411H11.6249V19.306ZM15.7809 17.1282H14.1667V9.4619H15.7868C16.5382 9.4619 17.1702 9.59495 17.6828 9.86106C18.1955 10.1272 18.581 10.542 18.8392 11.1055C19.1014 11.669 19.2325 12.395 19.2325 13.2833C19.2325 14.1795 19.1014 14.9113 18.8392 15.4787C18.581 16.0422 18.1935 16.459 17.677 16.729C17.1643 16.9951 16.5323 17.1282 15.7809 17.1282ZM25.3183 18.9185C25.9875 19.2942 26.7858 19.4821 27.7133 19.4821C28.4568 19.4821 29.1123 19.3686 29.6797 19.1416C30.2511 18.9107 30.7168 18.5898 31.0768 18.1789C31.4408 17.7641 31.6814 17.2788 31.7988 16.7231L29.486 16.5705C29.3999 16.7975 29.2747 16.9893 29.1104 17.1458C28.946 17.3023 28.7484 17.4197 28.5175 17.498C28.2866 17.5763 28.0322 17.6154 27.7544 17.6154C27.3356 17.6154 26.9737 17.5273 26.6684 17.3512C26.3632 17.1751 26.1264 16.9247 25.9581 16.5999C25.7938 16.2751 25.7116 15.8896 25.7116 15.4435V15.4376H31.8517V14.7508C31.8517 13.9838 31.744 13.3146 31.5288 12.7433C31.3136 12.168 31.0122 11.6906 30.6248 11.311C30.2413 10.9314 29.7913 10.6476 29.2747 10.4598C28.7621 10.2681 28.2083 10.1722 27.6135 10.1722C26.7291 10.1722 25.9581 10.3678 25.3007 10.7592C24.6472 11.1505 24.1404 11.6964 23.7803 12.3969C23.4203 13.0974 23.2403 13.9114 23.2403 14.8389C23.2403 15.7898 23.4203 16.6136 23.7803 17.3102C24.1404 18.0028 24.653 18.5389 25.3183 18.9185ZM25.7139 13.8879C25.729 13.5641 25.8124 13.2687 25.964 13.0015C26.1284 12.708 26.3553 12.4752 26.6449 12.303C26.9384 12.1269 27.275 12.0388 27.6546 12.0388C28.0185 12.0388 28.3375 12.1191 28.6114 12.2795C28.8892 12.4361 29.1064 12.6532 29.263 12.9311C29.4195 13.2089 29.4978 13.5279 29.4978 13.8879H25.7139ZM38.4951 19.306L41.6473 10.2896H38.9999L37.1332 16.7408H37.0393L35.1668 10.2896H32.5252L35.6775 19.306H38.4951Z" fill="#003049"/>
</svg>
